<?xml version="1.0" standalone="no"?><!DOCTYPE svg PUBLIC "-//W3C//DTD SVG 1.1//EN" "http://www.w3.org/Graphics/SVG/1.1/DTD/svg11.dtd"><svg t="1712461520644" class="icon" viewBox="0 0 1024 1024" version="1.1" xmlns="http://www.w3.org/2000/svg" p-id="6329" xmlns:xlink="http://www.w3.org/1999/xlink" width="200" height="200"><path d="M938.666667 533.333333a21.333333 21.333333 0 0 1-21.333334 21.333334H414.166667l134.253333 134.246666a21.333333 21.333333 0 1 1-30.173333 30.173334l-170.666667-170.666667a21.333333 21.333333 0 0 1 0-30.173333l170.666667-170.666667a21.333333 21.333333 0 0 1 30.173333 30.173333L414.166667 512H917.333333a21.333333 21.333333 0 0 1 21.333334 21.333333zM640 138.666667v138.666666a21.333333 21.333333 0 0 1-42.666667 0V138.666667a10.666667 10.666667 0 0 0-10.666666-10.666667H138.666667a10.666667 10.666667 0 0 0-10.666667 10.666667v789.333333a10.666667 10.666667 0 0 0 10.666667 10.666667h448a10.666667 10.666667 0 0 0 10.666666-10.666667v-138.666667a21.333333 21.333333 0 0 1 42.666667 0v138.666667a53.393333 53.393333 0 0 1-53.333333 53.333333H138.666667a53.393333 53.393333 0 0 1-53.333334-53.333333V138.666667a53.393333 53.393333 0 0 1 53.333334-53.333334h448a53.393333 53.393333 0 0 1 53.333333 53.333334z" fill="#D9D2D2" p-id="6330"></path></svg>